<svg width="249" height="249" viewBox="0 0 249 249" fill="none" xmlns="http://www.w3.org/2000/svg">
<path d="M41.5 217.875V184.675L201.794 24.3813L234.994 57.5813L74.7 217.875H41.5ZM57.0625 202.313H68.475L184.156 86.6313L178.45 80.925L172.744 75.2188L57.0625 190.9V202.313ZM178.45 80.925L172.744 75.2188L184.156 86.6313L178.45 80.925ZM197.125 181.563C197.125 174.646 194.574 168.291 189.473 162.498C184.373 156.706 176.375 152.167 165.481 148.881L153.291 161.072C161.937 163.147 168.81 166.087 173.911 169.891C179.012 173.695 181.562 177.585 181.562 181.563C181.562 187.096 177.715 191.938 170.02 196.088C162.326 200.238 151.475 202.313 137.469 202.313V217.875C154.934 217.875 169.242 214.719 180.395 208.408C191.548 202.096 197.125 193.148 197.125 181.563ZM62.25 141.619L74.7 129.169C65.3625 126.921 58.3594 124.543 53.6906 122.036C49.0219 119.529 46.6875 116.892 46.6875 114.125C46.6875 111.185 48.7193 108.419 52.7828 105.825C56.8462 103.231 64.325 99.9461 75.2188 95.9688C88.7062 90.954 98.1304 85.9829 103.491 81.0547C108.851 76.1266 111.531 69.9447 111.531 62.5094C111.531 52.6532 108.332 44.9584 101.934 39.4251C95.5366 33.8918 86.6313 31.1251 75.2188 31.1251C67.6102 31.1251 60.0884 32.8975 52.6531 36.4423C45.2177 39.9871 39.1656 44.6991 34.4969 50.5782L45.3906 60.6938C49.3677 56.7165 54.2094 53.3882 59.9156 50.7079C65.6219 48.0277 70.7227 46.6876 75.2188 46.6876C81.9625 46.6876 87.1069 48.0277 90.6516 50.7079C94.1962 53.3882 95.9688 57.3219 95.9688 62.5094C95.9688 66.3134 94.1962 69.4695 90.6516 71.9766C87.1069 74.4837 79.8875 77.7259 68.9938 81.7032C54.8148 86.8907 44.9583 91.8188 39.425 96.4875C33.8916 101.156 31.125 107.035 31.125 114.125C31.125 120.523 33.8916 126.143 39.425 130.984C44.9583 135.826 52.5665 139.371 62.25 141.619Z" fill="#6969EC"/>
</svg>
