<svg width="138" height="19" viewBox="0 0 138 19" fill="none" xmlns="http://www.w3.org/2000/svg">
<path d="M15.808 18L14.56 14.976H6.28L5.032 18H0.832L8.368 1.2H12.568L20.056 18H15.808ZM10.456 4.968L7.696 11.592H13.168L10.456 4.968ZM28.7466 5.904C29.8506 5.904 30.8346 6.168 31.6986 6.696C32.5626 7.208 33.2346 7.936 33.7146 8.88C34.1946 9.808 34.4346 10.872 34.4346 12.072C34.4346 13.272 34.1946 14.344 33.7146 15.288C33.2346 16.216 32.5626 16.944 31.6986 17.472C30.8346 17.984 29.8506 18.24 28.7466 18.24C27.1306 18.24 25.8186 17.688 24.8106 16.584L24.5706 18H21.3066V1.2H25.0746V7.272C26.0666 6.36 27.2906 5.904 28.7466 5.904ZM27.8586 15.072C28.6906 15.072 29.3706 14.8 29.8986 14.256C30.4266 13.696 30.6906 12.968 30.6906 12.072C30.6906 11.176 30.4266 10.456 29.8986 9.912C29.3706 9.352 28.6906 9.072 27.8586 9.072C27.0266 9.072 26.3466 9.352 25.8186 9.912C25.3066 10.472 25.0506 11.192 25.0506 12.072C25.0506 12.952 25.3066 13.672 25.8186 14.232C26.3466 14.792 27.0266 15.072 27.8586 15.072ZM43.3084 5.88C43.8524 5.88 44.3964 5.984 44.9404 6.192C45.4844 6.384 45.9564 6.672 46.3564 7.056L44.7724 9.816C44.4364 9.608 44.1244 9.456 43.8364 9.36C43.5484 9.264 43.2444 9.216 42.9244 9.216C42.1244 9.216 41.4924 9.472 41.0284 9.984C40.5644 10.496 40.3324 11.248 40.3324 12.24V18H36.5644V6.144H39.8524L40.1404 7.632C40.9084 6.464 41.9644 5.88 43.3084 5.88ZM49.5229 4.968C48.8669 4.968 48.3309 4.776 47.9149 4.392C47.5149 4.008 47.3149 3.52 47.3149 2.928C47.3149 2.32 47.5229 1.824 47.9389 1.44C48.3549 1.056 48.8829 0.863999 49.5229 0.863999C50.1629 0.863999 50.6909 1.056 51.1069 1.44C51.5229 1.824 51.7309 2.32 51.7309 2.928C51.7309 3.52 51.5229 4.008 51.1069 4.392C50.7069 4.776 50.1789 4.968 49.5229 4.968ZM47.6269 6.144H51.3949V18H47.6269V6.144ZM54.2363 1.2H58.0043V18H54.2363V1.2ZM74.9667 18.384C73.1587 18.384 71.5667 18.016 70.1907 17.28C68.8307 16.544 67.7747 15.512 67.0227 14.184C66.2867 12.856 65.9187 11.328 65.9187 9.6C65.9187 7.872 66.2947 6.344 67.0467 5.016C67.8147 3.672 68.8787 2.64 70.2387 1.92C71.5987 1.184 73.1507 0.816 74.8947 0.816C77.3747 0.816 79.5027 1.688 81.2787 3.432L78.8547 5.856C77.7827 4.832 76.4947 4.32 74.9907 4.32C73.9827 4.32 73.0867 4.544 72.3027 4.992C71.5347 5.424 70.9347 6.04 70.5027 6.84C70.0867 7.64 69.8787 8.56 69.8787 9.6C69.8787 10.64 70.0867 11.56 70.5027 12.36C70.9347 13.16 71.5347 13.784 72.3027 14.232C73.0867 14.664 73.9827 14.88 74.9907 14.88C75.7907 14.88 76.5587 14.736 77.2947 14.448C78.0307 14.16 78.6707 13.744 79.2147 13.2L81.5187 15.768C79.7107 17.512 77.5267 18.384 74.9667 18.384ZM88.873 18.264C87.561 18.264 86.409 18.008 85.417 17.496C84.441 16.968 83.689 16.24 83.161 15.312C82.633 14.384 82.369 13.304 82.369 12.072C82.369 10.84 82.633 9.76 83.161 8.832C83.689 7.904 84.441 7.184 85.417 6.672C86.409 6.144 87.561 5.88 88.873 5.88C90.185 5.88 91.337 6.144 92.329 6.672C93.321 7.184 94.081 7.904 94.609 8.832C95.137 9.76 95.401 10.84 95.401 12.072C95.401 13.304 95.137 14.384 94.609 15.312C94.081 16.24 93.321 16.968 92.329 17.496C91.337 18.008 90.185 18.264 88.873 18.264ZM88.873 15.072C89.705 15.072 90.377 14.792 90.889 14.232C91.401 13.672 91.657 12.952 91.657 12.072C91.657 11.192 91.401 10.472 90.889 9.912C90.377 9.352 89.705 9.072 88.873 9.072C88.057 9.072 87.393 9.352 86.881 9.912C86.369 10.472 86.113 11.192 86.113 12.072C86.113 12.952 86.369 13.672 86.881 14.232C87.393 14.792 88.057 15.072 88.873 15.072ZM110.004 1.2V18H106.74L106.5 16.584C105.492 17.688 104.18 18.24 102.564 18.24C101.46 18.24 100.476 17.984 99.6123 17.472C98.7643 16.944 98.1003 16.216 97.6203 15.288C97.1403 14.344 96.9003 13.272 96.9003 12.072C96.9003 10.872 97.1403 9.808 97.6203 8.88C98.1003 7.936 98.7643 7.208 99.6123 6.696C100.476 6.168 101.46 5.904 102.564 5.904C104.02 5.904 105.244 6.36 106.236 7.272V1.2H110.004ZM103.452 15.072C104.284 15.072 104.964 14.8 105.492 14.256C106.02 13.696 106.284 12.968 106.284 12.072C106.284 11.176 106.02 10.456 105.492 9.912C104.964 9.352 104.284 9.072 103.452 9.072C102.62 9.072 101.94 9.352 101.412 9.912C100.9 10.472 100.644 11.192 100.644 12.072C100.644 12.952 100.9 13.672 101.412 14.232C101.94 14.792 102.62 15.072 103.452 15.072ZM118.566 5.88C119.862 5.88 120.982 6.128 121.926 6.624C122.87 7.104 123.59 7.792 124.086 8.688C124.598 9.568 124.854 10.6 124.854 11.784C124.854 12.168 124.814 12.64 124.734 13.2H116.022C116.134 13.808 116.462 14.304 117.006 14.688C117.55 15.056 118.246 15.24 119.094 15.24C119.686 15.24 120.262 15.152 120.822 14.976C121.382 14.8 121.862 14.552 122.262 14.232L124.23 16.344C123.558 16.968 122.758 17.448 121.83 17.784C120.918 18.12 119.942 18.288 118.902 18.288C117.526 18.288 116.334 18.04 115.326 17.544C114.318 17.032 113.542 16.312 112.998 15.384C112.454 14.456 112.182 13.36 112.182 12.096C112.182 10.88 112.446 9.8 112.974 8.856C113.518 7.912 114.27 7.184 115.23 6.672C116.19 6.144 117.302 5.88 118.566 5.88ZM118.686 8.856C117.934 8.856 117.318 9.048 116.838 9.432C116.374 9.816 116.11 10.352 116.046 11.04H121.278C121.23 10.352 120.974 9.816 120.51 9.432C120.062 9.048 119.454 8.856 118.686 8.856ZM131.547 18.312C129.451 18.312 127.627 17.784 126.075 16.728L127.515 14.136C128.091 14.488 128.755 14.76 129.507 14.952C130.275 15.144 131.035 15.24 131.787 15.24C132.827 15.24 133.347 14.96 133.347 14.4C133.347 14.112 133.203 13.896 132.915 13.752C132.627 13.608 132.147 13.512 131.475 13.464C129.971 13.384 128.771 13.008 127.875 12.336C126.995 11.664 126.555 10.784 126.555 9.696C126.555 8.512 127.035 7.576 127.995 6.888C128.955 6.184 130.251 5.832 131.883 5.832C132.811 5.832 133.691 5.944 134.523 6.168C135.371 6.392 136.099 6.704 136.707 7.104L135.243 9.624C134.347 9.112 133.283 8.856 132.051 8.856C130.835 8.856 130.227 9.144 130.227 9.72C130.227 9.96 130.347 10.144 130.587 10.272C130.843 10.4 131.267 10.496 131.859 10.56C133.555 10.688 134.843 11.072 135.723 11.712C136.619 12.352 137.067 13.248 137.067 14.4C137.067 15.616 136.579 16.576 135.603 17.28C134.627 17.968 133.275 18.312 131.547 18.312Z" fill="white"/>
</svg>
